<svg xmlns="http://www.w3.org/2000/svg" xmlns:xlink="http://www.w3.org/1999/xlink" version="1.0" id="Vrstva_1" x="0" y="0" viewBox="0 0 396.9 141.7" xml:space="preserve"><defs><path id="SVGID_1_" d="M0 0h396.9v141.7H0z"/></defs><clipPath id="SVGID_2_"><use xlink:href="#SVGID_1_" overflow="visible"/></clipPath><path d="M322.6 127.4c-1.1 0-2 .9-2 2s.9 1.9 1.9 1.9c1.1 0 2-.9 2-1.9 0-1.1-.9-2-1.9-2m-1.3-18.6l.3 15.9h1.9l.4-15.9h-2.6zm-7.8 15c0 1.7-.2 2.9-.6 3.6-.7 1.2-2 1.9-3.6 1.9-1.9 0-3.1-1.2-3.1-2.8 0-2.2 1.9-3.4 7.3-4.3v1.6zm-6.8-4.7c.3-1.8 1.5-2.6 3.6-2.6 2.4 0 3.3.9 3.3 3.3v.7c-3 .5-4.5.8-6 1.4-2.4.9-3.7 2.6-3.7 4.8 0 2.8 2.1 4.7 5.2 4.7 2.2 0 3.8-.9 4.7-2.6.1 1.1.1 1.4.4 2.2h2.3c-.4-1.1-.4-1.6-.4-4.2v-6c0-2-.1-2.8-.4-3.6-.6-1.7-2.5-2.6-5.2-2.6-3.6 0-5.7 1.6-6 4.7h2.2zm-13.5-2.6c2.5 0 4.2 2.5 4.2 6.4 0 3.9-1.7 6.4-4.2 6.4-2.6 0-4.2-2.5-4.2-6.3-.1-4 1.5-6.5 4.2-6.5m6.5-8.3h-2.4v8.9c-1.1-1.9-2.5-2.7-4.5-2.7-3.8 0-6.3 3.5-6.3 8.6 0 5 2.5 8.3 6.5 8.3 2 0 3.4-.8 4.5-2.7v.6c0 .6.1 1.1.2 1.7h2.3c-.2-.9-.3-1.9-.3-4.8v-17.9zm-26.8 6.7v2h8.4l-9.1 12.3v1.9h11.9v-2H275l9.2-12.4v-1.8h-11.3zm-6.8-2.5h1.9l4-4.7h-3.2l-2.7 4.7zm.3 18.6h2.5v-16.1h-2.5V131zm-6.1-23c-1 0-1.8.7-1.8 1.8 0 1 .7 1.7 1.7 1.7s1.7-.7 1.7-1.7c.1-1-.6-1.8-1.6-1.8m-1.3 6.9v14.7c0 3.6-.2 4.4-1.3 5.1-.8.4-1.4.6-3.2.6v2.1h.8c2.4 0 4-.6 5.1-1.9.9-1.2 1.1-2.2 1.1-5.8V115H259zm-22.1-2.5h2l5-4.7h-3.4l-3.6 4.7zm5.2 11.4c0 1.7-.2 2.9-.6 3.6-.7 1.2-2 1.9-3.6 1.9-1.9 0-3.1-1.2-3.1-2.8 0-2.2 1.9-3.4 7.3-4.3v1.6zm-6.8-4.7c.3-1.8 1.5-2.6 3.6-2.6 2.4 0 3.3.9 3.3 3.3v.7c-3 .5-4.5.8-6 1.4-2.4.9-3.7 2.6-3.7 4.8 0 2.8 2.1 4.7 5.2 4.7 2.2 0 3.8-.9 4.7-2.6.1 1.1.1 1.4.4 2.2h2.3c-.4-1.1-.4-1.6-.4-4.2v-6c0-2-.1-2.8-.4-3.6-.6-1.7-2.5-2.6-5.2-2.6-3.6 0-5.7 1.6-6 4.7h2.2zm-18.4-4.2l5.7 16.3h2.5l5.7-16.3h-2.4l-4.5 13.5-4.5-13.5h-2.5zm-8.6 1.6c2.7 0 4.6 2.6 4.6 6.4 0 3.8-1.9 6.4-4.6 6.4-2.7 0-4.6-2.6-4.6-6.5.1-3.7 1.9-6.3 4.6-6.3m0-2.1c-4.1 0-7 3.5-7 8.3 0 5.1 2.9 8.6 7 8.6s7-3.5 7-8.5c.1-4.9-2.8-8.4-7-8.4m-12.9.5l.1-4.7h-2.3l-.1 4.7h-2.5v1.9h2.4l-.2 8.1v2.6c0 1.2.1 1.8.4 2.4.5 1 1.7 1.5 3.3 1.5 1 0 1.8-.2 2.9-.5v-2.1c-.7.4-1.6.6-2.3.6-1.4 0-1.8-.6-1.8-2.6V125l.2-8.1h3.8V115h-3.9zM175.8 131h2.4v-22.7h-2.4V131zm9.2-16.1l-6.8 7.3 6.9 8.8h3.3l-7.2-8.9 6.7-7.2H185zm-24.2 6.6c.5-3.3 2-5 4.3-5 2.4 0 3.9 1.8 4.1 5h-8.4zm10.9 1.8v-.7c0-5-2.6-8.2-6.5-8.2-4.2 0-6.9 3.4-6.9 8.7 0 5.1 2.7 8.3 7.1 8.3 3 0 5-1.4 6-4.2l-2.2-.3c-.9 1.8-2 2.4-3.7 2.4-2.9 0-4.5-2.1-4.6-6h10.8zM153.1 108c-1 0-1.8.7-1.8 1.8 0 1 .7 1.7 1.7 1.7s1.7-.7 1.7-1.7c.1-1-.6-1.8-1.6-1.8m-1.3 6.9v14.7c0 3.6-.2 4.4-1.3 5.1-.8.4-1.4.6-3.2.6v2.1h.8c2.4 0 4-.6 5.1-1.9.9-1.2 1.1-2.2 1.1-5.8V115h-2.5zm-11.5 1.6c2.7 0 4.6 2.6 4.6 6.4 0 3.8-1.9 6.4-4.6 6.4-2.7 0-4.6-2.6-4.6-6.5 0-3.7 1.9-6.3 4.6-6.3m0-2.1c-4.1 0-7 3.5-7 8.3 0 5.1 2.9 8.6 7 8.6s7-3.5 7-8.5c0-4.9-2.9-8.4-7-8.4m-17.4.5c.2 1.6.3 1.8.3 5.5V131h2.4v-7.2c0-2.1.2-3.5.7-4.6.7-1.6 1.8-2.5 3.1-2.5.6 0 1.1.1 2.1.6v-2.4c-.7-.3-1.3-.5-1.9-.5-1.7 0-3 1.2-4.1 3.9v-1c0-.8-.1-1.7-.3-2.5h-2.3zm-10.3 1.6c2.5 0 4.1 2.5 4.1 6.5 0 3.9-1.5 6.3-4.1 6.3-2.6 0-4.3-2.6-4.3-6.4-.1-3.8 1.7-6.4 4.3-6.4m-6.7 21.2h2.4v-8.9c1.2 1.8 2.6 2.6 4.6 2.6 3.7 0 6.2-3.4 6.2-8.4 0-5.1-2.5-8.5-6.4-8.5-2 0-3.4.8-4.5 2.8 0-1.3-.1-1.7-.3-2.4h-2.3c.2 1.2.3 2 .3 4.8v18z" clip-path="url(#SVGID_2_)"/><defs><path id="SVGID_3_" d="M1.3 5.2h394.2V89H1.3z"/></defs><clipPath id="SVGID_4_"><use xlink:href="#SVGID_3_" overflow="visible"/></clipPath><path d="M1.3 44c0-21.4 17.4-38.8 38.8-38.8S78.9 22.5 78.9 44c0 21.4-17.4 38.8-38.8 38.8S1.3 65.4 1.3 44" clip-path="url(#SVGID_4_)" fill="#d5112a"/><path clip-path="url(#SVGID_4_)" fill="#fff" d="M11.3 47.3l51.1-25.7-25.7 51.3-4.1-21.3z"/><path d="M360.5 31.9c.3-10 6.9-15.9 17.9-15.9 10 0 16.4 5.7 16.4 14.7 0 6.1-2.8 10-8.9 12.3 6.6 1.9 9.7 6 9.7 12.9C395.6 66 388 73 376.9 73c-11.9 0-19-6.4-19-17.3h9.4c.1 5.2 3.5 8.3 9.3 8.3 5.3 0 8.6-3 8.6-8.1 0-3.9-2.4-6.7-6.5-7.4-2.1-.3-4.9-.5-8.7-.5v-8.5c.8.1 1.7.1 2 .1 3.6 0 6.6-.5 8.4-1.4 2.4-1.3 3.9-3.9 3.9-6.6 0-3.8-2.9-6.5-7.1-6.5-4.3 0-7 2.4-7.7 6.9h-9zM117.4 15.8l22.8 39.6V15.8h10.3V72h-10.9l-23.4-39.6V72h-10.3V15.8zm43.8 28.1c.5-4.4 1.8-6.9 4.4-9 3-2.4 7.8-3.8 13.1-3.8 6.9 0 11.9 2.2 13.7 6 1.2 2.4 1.6 4.8 1.6 9.9v16.1c0 4.8.3 6.8 1.3 8.9h-9.4c-.4-1.6-.5-2.5-.5-4.6-2.2 3.6-5.7 5.4-11 5.4-9.2 0-14.6-4.3-14.6-11.4 0-5.5 3.2-9.8 9.1-12 3.6-1.4 4.2-1.5 15.1-3.5v-.7c0-4.4-1.7-6.1-6.1-6.1-4 0-6.2 1.5-6.8 4.6h-9.9zm22.8 9c-6.7.8-9.4 1.4-11.1 2.7-1.5 1.1-2.4 2.8-2.4 4.5 0 2.8 2.5 4.8 6.2 4.8 3 0 5.6-1.4 6.7-3.7.5-1.3.8-2.9.8-6v-2.3zM210.1 32l9.3 28.7 9.3-28.7h10.7L225 72.2h-11.6L199.2 32zm36.2 0h10.4v40h-10.4zm59.3 7.4h-8.2c1.3 2 2.1 4.6 2.1 7.2 0 4.7-2.2 8.3-6.2 10-2.8 1.2-3 1.2-11.7 2-2.4.2-4 1.2-4 2.4 0 1.5.6 1.7 8.8 2.4 6.7.7 9.9 1.3 12.4 2.7 3.3 1.7 5.2 5.2 5.2 9.4 0 8.4-7.3 13.4-19.9 13.4-12.3 0-20-4.6-20-11.8 0-4.6 2.4-7.4 8.1-9.4-3.2-1.3-4.5-2.6-4.5-4.8 0-2.7 1.9-4.4 7.1-6.4-4.7-2.4-6.8-5.9-6.8-11.4 0-8.6 6.5-14.1 16.7-14.1 2.5 0 4.5.2 7.7 1.1l13.2-.3v7.6zM273 76.3c0 3.2 4.2 5.1 11.2 5.1 6.2 0 9.9-1.8 9.9-5 0-3.3-4.2-5.2-11.2-5.2-6.3 0-9.9 1.9-9.9 5.1m4-31.2c0 3.5 2.7 5.9 6.9 5.9s7-2.4 7-5.9c0-3.7-2.8-6.1-6.8-6.1-4.4 0-7.1 2.4-7.1 6.1m72.4 6.9c0 12.2-8.3 21.1-19.7 21.1-11.6 0-19.8-8.8-19.8-21.4 0-12 8.4-20.8 19.8-20.8 11.5 0 19.7 8.8 19.7 21.1m-28.9-.2c0 7.8 3.7 12.9 9.2 12.9 5.4 0 9.2-5.2 9.2-12.7 0-7.6-3.8-12.8-9.2-12.8-5.4 0-9.2 5.2-9.2 12.6" clip-path="url(#SVGID_4_)" fill="#3c3c3b"/><script xmlns=""/></svg>